<svg xmlns="http://www.w3.org/2000/svg" xmlns:xlink="http://www.w3.org/1999/xlink" width="500" zoomAndPan="magnify" viewBox="0 0 375 187.499995" height="250" preserveAspectRatio="xMidYMid meet" version="1.0"><defs><g/></defs><g fill="#ffffff" fill-opacity="1"><g transform="translate(18.829123, 174.067929)"><g><path d="M 158.542969 -114.636719 C 158.542969 -135.097656 159.339844 -144.636719 160.925781 -158.941406 L 115.035156 -158.941406 C 116.820312 -144.636719 117.417969 -135.097656 117.417969 -114.636719 L 117.417969 -81.855469 L 57.417969 -81.855469 L 57.417969 -114.636719 C 57.417969 -135.097656 58.011719 -144.636719 59.800781 -158.941406 L 13.90625 -158.941406 C 15.695312 -144.636719 16.292969 -135.097656 16.292969 -114.636719 L 16.292969 -44.304688 C 16.292969 -23.839844 15.695312 -14.304688 13.90625 0 L 59.800781 0 C 58.011719 -14.304688 57.417969 -23.839844 57.417969 -44.304688 L 57.417969 -77.085938 L 117.417969 -77.085938 L 117.417969 -44.304688 C 117.417969 -23.839844 116.820312 -14.304688 115.035156 0 L 160.925781 0 C 159.339844 -14.304688 158.542969 -23.839844 158.542969 -44.304688 Z M 158.542969 -114.636719 "/></g></g></g><g fill="#ffffff" fill-opacity="1"><g transform="translate(193.067504, 174.067929)"><g><path d="M 107.285156 -88.609375 C 130.730469 -92.980469 141.457031 -103.511719 141.457031 -122.78125 C 141.457031 -153.578125 115.429688 -158.941406 85.230469 -158.941406 L 13.90625 -158.941406 C 15.695312 -144.636719 16.292969 -135.097656 16.292969 -114.636719 L 16.292969 -44.304688 C 16.292969 -23.839844 15.695312 -14.304688 13.90625 0 L 88.808594 0 C 124.96875 0 153.179688 -10.132812 153.179688 -44.105469 C 153.179688 -71.523438 134.902344 -83.839844 107.285156 -88.609375 Z M 57.417969 -154.171875 L 68.742188 -154.171875 C 86.820312 -154.171875 100.132812 -144.4375 100.132812 -122.78125 C 100.132812 -101.722656 91.988281 -90.992188 69.734375 -90.992188 L 57.417969 -90.992188 Z M 70.730469 -4.769531 L 57.417969 -4.769531 L 57.417969 -86.226562 L 71.722656 -86.226562 C 89.007812 -86.226562 108.875 -78.875 108.875 -43.511719 C 108.875 -14.105469 91.390625 -4.769531 70.730469 -4.769531 Z M 70.730469 -4.769531 "/></g></g></g></svg>