<svg width="473" height="349" viewBox="0 0 473 349" fill="none" xmlns="http://www.w3.org/2000/svg">
    <g clip-path="url(#clip0_248_723)">
        <path
            d="M472.55 173.99C461.398 181.458 449.525 187.79 437.11 192.89C424.765 197.958 412.012 201.973 398.99 204.89C399.16 228.89 399.04 252.67 399.07 276.46C399.1 300.25 399.07 324.03 399.07 347.86C397.822 348.13 396.537 348.184 395.27 348.02C391.112 347.763 386.978 347.205 382.9 346.35C374.486 344.517 366.504 341.082 359.39 336.23C349.281 329.443 340.903 320.381 334.93 309.77C330.87 302.519 328.204 294.572 327.07 286.34C326.478 282.062 326.191 277.748 326.21 273.43C326.21 253.857 326.21 234.283 326.21 214.71V212.59C325.837 212.505 325.46 212.441 325.08 212.4C320.26 212.3 315.44 212.25 310.62 212.11C305.11 211.94 299.62 211.75 294.1 211.48C289.54 211.26 284.99 210.94 280.43 210.59C276.18 210.27 271.93 209.87 267.68 209.51C263.82 209.18 259.97 208.87 256.11 208.51C252.81 208.19 249.51 207.8 246.2 207.45L236.58 206.45C233.48 206.11 230.38 205.74 227.27 205.39L218.1 204.39L209.39 203.39L200.22 202.32L190.77 201.13C186.83 200.69 182.89 200.27 178.94 199.84C175.54 199.47 172.14 199.1 168.73 198.75C167.07 198.58 165.39 198.46 163.62 198.3C163.55 198.82 163.46 199.2 163.45 199.58C163.45 200.37 163.45 201.17 163.45 201.96V345.68C163.45 346.41 163.38 347.13 163.34 348.02C162.01 348.02 160.83 348.1 159.65 348.02C155.444 347.759 151.261 347.211 147.13 346.38C137.235 344.267 127.935 339.973 119.91 333.81C110.313 326.64 102.583 317.266 97.37 306.48C94.4435 300.336 92.4612 293.786 91.4901 287.05C90.9189 283.223 90.6314 279.359 90.6301 275.49C90.6301 249.49 90.6301 223.457 90.6301 197.39C90.6301 196.71 90.57 196.03 90.54 195.22C89.9758 195.152 89.4083 195.115 88.84 195.11C85.37 195.29 81.9 195.46 78.43 195.67C75.76 195.84 73.08 196.03 70.43 196.31C66.29 196.75 62.14 197.15 58.03 197.79C52.4 198.67 46.77 199.61 41.2 200.79C27.2921 203.67 13.8002 208.283 1.04004 214.52L0.0400391 215C0.100039 214.3 0.650039 214 1.04004 213.62C8.65472 205.581 17.2682 198.55 26.67 192.7C39.4361 184.913 53.2395 178.971 67.67 175.05C75.8787 172.712 84.2293 170.905 92.67 169.64C97.96 168.86 103.27 168.14 108.59 167.57C113.47 167.04 118.37 166.66 123.26 166.37C128.42 166.06 133.58 165.86 138.74 165.73C144.553 165.59 150.363 165.527 156.17 165.54C160.69 165.54 165.17 165.68 169.73 165.83C174.29 165.98 178.65 166.18 183.12 166.42C187.97 166.68 192.82 166.99 197.67 167.32C202.923 167.68 208.167 168.077 213.4 168.51C218.4 168.94 223.4 169.45 228.4 169.91C232.1 170.25 235.81 170.53 239.51 170.91C243.01 171.24 246.51 171.66 250.01 172.01C253.51 172.36 256.92 172.64 260.38 173.01C263.68 173.34 266.98 173.72 270.28 174.07L277.09 174.76L288.19 175.89C290.7 176.13 293.19 176.34 295.74 176.59C298.29 176.84 300.74 177.11 303.28 177.36C305.82 177.61 308.28 177.82 310.84 178.04C314.99 178.42 319.14 178.81 323.29 179.16C326.4 179.42 329.52 179.63 332.64 179.86L342.72 180.63C344.36 180.75 345.99 180.88 347.62 180.97C350.35 181.11 353.08 181.22 355.8 181.36C359.32 181.53 362.8 181.78 366.36 181.9C371.67 182.06 376.99 182.15 382.3 182.26C386.47 182.34 390.64 182.45 394.81 182.44C399.43 182.44 404.05 182.31 408.67 182.15C412.543 182.03 416.41 181.837 420.27 181.57C424.47 181.28 428.67 180.92 432.86 180.46C438.86 179.81 444.79 179.16 450.72 178.29C458.02 177.177 465.297 175.743 472.55 173.99Z"
            fill="#159C49" />
        <path
            d="M90.6002 153.79V0.330013C91.7317 -0.0252656 92.9319 -0.104135 94.1002 0.100013C96.6702 0.280013 99.2402 0.540012 101.79 0.900012C110.594 2.07665 119.062 5.04798 126.67 9.63001C139.286 17.0836 149.516 27.9794 156.16 41.04C159.174 47.0248 161.268 53.4303 162.37 60.04C163.156 64.8425 163.524 69.704 163.47 74.57C163.51 96.93 163.51 119.287 163.47 141.64V143.89C164.17 143.89 164.75 144 165.32 143.99C169.32 143.91 173.26 143.74 177.24 143.72C184.04 143.72 190.85 143.65 197.66 143.72C203.66 143.81 209.66 144.07 215.66 144.31C219.33 144.45 222.99 144.67 226.66 144.89C231.327 145.17 236.03 145.473 240.77 145.8C244.577 146.073 248.383 146.37 252.19 146.69C257.28 147.13 262.36 147.63 267.45 148.09C271.25 148.43 275.06 148.71 278.86 149.09C282.27 149.42 285.66 149.82 289.07 150.16C292.48 150.5 296.07 150.81 299.58 151.16C303.09 151.51 306.28 151.89 309.63 152.23C312.1 152.49 314.57 152.69 317.04 152.94L326.95 153.94L334.2 154.66C336.86 154.93 339.52 155.21 342.2 155.47L349.9 156.17L357.9 156.94C360.61 157.19 363.33 157.41 366.05 157.64L375.53 158.45C376.92 158.57 378.3 158.69 379.69 158.78C383.3 159.01 386.92 159.22 390.53 159.46C394.39 159.71 398.25 160 402.11 160.24C404.24 160.38 406.37 160.5 408.51 160.57C412.92 160.72 417.34 160.86 421.76 160.94C430.9 161.1 440.017 161.243 449.11 161.37C445.94 161.94 442.69 162.57 439.42 163.08C435.35 163.72 431.28 164.31 427.19 164.8C423.69 165.22 420.19 165.52 416.67 165.8C412.42 166.13 408.16 166.38 403.89 166.64C402.56 166.72 401.21 166.69 399.89 166.72C395.12 166.8 390.35 166.96 385.59 166.95C380.67 166.95 375.75 166.85 370.83 166.65C364.977 166.43 359.127 166.137 353.28 165.77C348.62 165.49 343.98 165.06 339.33 164.69C335.27 164.37 331.21 164.07 327.16 163.69C322.67 163.28 318.16 162.78 313.69 162.33C310.34 161.99 306.98 161.67 303.62 161.33C300.42 160.99 297.22 160.61 294.01 160.26L284.39 159.26L274.48 158.19C271.28 157.84 268.07 157.52 264.86 157.19C261.36 156.83 257.86 156.46 254.35 156.11C251.89 155.86 249.42 155.63 246.95 155.4C242.95 155.03 238.95 154.66 234.95 154.32C231.95 154.06 228.95 153.84 225.89 153.61L215.21 152.84C213.13 152.7 211.04 152.56 208.96 152.47C205.84 152.32 202.71 152.21 199.58 152.1C194.17 151.9 188.76 151.61 183.35 151.55C175.6 151.47 167.85 151.47 160.1 151.62C154.64 151.72 149.19 152.1 143.73 152.39C140.41 152.57 137.09 152.76 133.78 153.04C130.17 153.35 126.57 153.75 122.97 154.15C119.37 154.55 115.67 154.93 112.04 155.46C107.09 156.17 102.12 156.87 97.2102 157.85C89.3402 159.41 81.4702 161.03 73.6702 162.93C60.1809 166.246 46.928 170.458 34.0002 175.54C33.654 175.694 33.2865 175.796 32.9102 175.84C51.1252 166.069 70.5114 158.659 90.6002 153.79Z"
            fill="#159C49" />
    </g>
    <defs>
        <clipPath id="clip0_248_723">
            <rect width="472.55" height="348.09" fill="white" />
        </clipPath>
    </defs>
</svg>